<svg width="24" height="16" viewBox="0 0 24 16" fill="none" xmlns="http://www.w3.org/2000/svg">
<path d="M15.5636 1.06978C15.4217 1.1484 15.2798 1.22702 15.1335 1.30802C13.1895 2.46959 11.4033 4.00668 9.73523 5.59153C9.34273 5.96184 8.94228 6.31612 8.53636 6.66861C7.73171 7.38236 6.98081 8.15347 6.23022 8.93336C5.75165 9.43021 5.26874 9.91743 4.76989 10.39C4.35023 10.7876 3.95075 11.1964 3.56364 11.6321C3.15324 12.0872 2.73622 12.5185 2.29091 12.9326C1.80457 13.3879 1.41934 13.8671 1.01818 14.4117C0.889183 14.5493 0.760183 14.6869 0.627274 14.8286C0.328794 15.1634 0.159491 15.4137 0 15.8412C0.227274 15.9603 0.227274 15.9603 0.58182 16C0.811495 15.8582 1.04035 15.7147 1.26477 15.5632C3.06265 14.4984 5.01537 14.2074 7.02898 14.2094C7.37112 14.2062 7.71326 14.2029 8.0554 14.1995C8.58607 14.1959 9.11672 14.1933 9.64741 14.1924C12.7495 14.1832 15.9763 14.0407 18.3659 11.5428C19.7227 9.88764 20.4165 8.099 20.8182 5.94394C20.8871 5.58029 20.9571 5.21691 21.0284 4.85383C21.0581 4.69509 21.0877 4.53635 21.1183 4.3728C21.2461 3.89229 21.4061 3.54093 21.6727 3.13459C22.413 2.69811 23.1779 2.51347 24 2.34043C23.7271 1.44646 22.8674 1.1003 22.1403 0.672696C19.9479 -0.414658 17.6453 -0.113001 15.5636 1.06978Z" fill="#766630"/>
<path d="M20.3638 1.38745C20.1238 1.43987 19.8838 1.49228 19.6366 1.54628C19.6846 1.75594 19.7326 1.9656 19.782 2.18161C20.022 2.1292 20.262 2.07678 20.5093 2.02278C20.4613 1.81312 20.4133 1.60346 20.3638 1.38745Z" fill="#D3CFCC"/>
</svg>
