<svg width="48" height="48" viewBox="0 0 48 48" fill="none" xmlns="http://www.w3.org/2000/svg">
<path d="M31.5206 12.021C32.349 12.021 33.0206 12.6926 33.0206 13.5211C33.0206 14.3495 32.349 15.0211 31.5206 15.0211H31.501C30.6726 15.0211 30.001 14.3495 30.001 13.5211C30.001 12.6926 30.6726 12.021 31.501 12.021H31.5206Z" fill="#DBCFA6"/>
<path d="M38.0011 13.5175C38.0047 12.1328 37.5661 10.7819 36.749 9.66392C35.9324 8.54649 34.7796 7.7197 33.46 7.30253C32.1397 6.88542 30.7199 6.89994 29.4091 7.34551C28.0983 7.79116 26.9632 8.64382 26.1708 9.77914L26.1688 9.7811L9.18598 34.0219H23.5008C27.3464 34.0219 31.0355 32.4931 33.755 29.7738C36.4736 27.0546 38.0011 23.3667 38.0011 19.5216V13.5175ZM41.0011 19.5216C41.0011 24.1625 39.1575 28.613 35.876 31.8949C32.5942 35.1767 28.1421 37.022 23.5008 37.022H7.08438L4.72887 40.3832C4.25336 41.0613 3.31726 41.2257 2.63898 40.7505C1.96067 40.275 1.79645 39.339 2.27178 38.6606L5.04724 34.6957C5.0547 34.6843 5.06292 34.6735 5.07068 34.6625L23.7118 8.06036C24.8698 6.40203 26.5272 5.15682 28.4423 4.50559C30.3581 3.85427 32.4327 3.83165 34.3624 4.44115C36.2918 5.05076 37.9771 6.26056 39.1711 7.89434C40.3643 9.52733 41.0057 11.4989 41.0011 13.5214V19.5216Z" fill="#DBCFA6"/>
<path d="M38.046 13.1578C38.2468 12.3542 39.0608 11.8653 39.8643 12.0659L43.8643 13.066C44.5322 13.2329 45.0012 13.8328 45.0012 14.5211C45.0012 15.2094 44.5322 15.8093 43.8643 15.9762L39.8643 16.9762C39.0608 17.1768 38.2468 16.6879 38.046 15.8844C37.9208 15.3835 38.064 14.8791 38.3838 14.5211C38.064 14.1631 37.9208 13.6586 38.046 13.1578Z" fill="#DBCFA6"/>
<path d="M18.0007 41.5217V35.5215C18.0007 34.6931 18.6723 34.0215 19.5008 34.0215C20.3292 34.0215 21.0008 34.6931 21.0008 35.5215V41.5217C21.0008 42.3501 20.3292 43.0217 19.5008 43.0217C18.6723 43.0217 18.0007 42.3501 18.0007 41.5217Z" fill="#DBCFA6"/>
<path d="M20.0281 13.3401C20.5583 12.704 21.5049 12.6186 22.1413 13.1487C24.273 14.9246 25.8048 17.3147 26.53 19.9926C27.2554 22.6707 27.1384 25.5069 26.1942 28.1158C25.25 30.7244 23.5255 32.9795 21.2547 34.5729C18.9833 36.1665 16.2751 37.0222 13.5005 37.0224C12.6723 37.0224 12.0009 36.3504 12.0005 35.5223C12.0004 34.6937 12.6721 34.0223 13.5005 34.0223C15.6581 34.0221 17.7636 33.3569 19.5299 32.1179C21.2965 30.8784 22.6393 29.1236 23.3737 27.0944C24.1079 25.0653 24.1996 22.8587 23.6355 20.7758C23.0713 18.6932 21.8791 16.8346 20.2215 15.4534C19.5849 14.9232 19.4978 13.9767 20.0281 13.3401Z" fill="#DBCFA6"/>
<path d="M26.0007 41.5217V35.0215C26.0007 34.1931 26.6723 33.5215 27.5008 33.5215C28.3292 33.5215 29.0008 34.1931 29.0008 35.0215V41.5217C29.0008 42.3501 28.3292 43.0217 27.5008 43.0217C26.6723 43.0217 26.0007 42.3501 26.0007 41.5217Z" fill="#DBCFA6"/>
</svg>
